<?xml version="1.0" encoding="UTF-8" standalone="no"?>
<svg
   width="192px"
   height="192px"
   version="1.1"
   id="svg19"
   xmlns:xlink="http://www.w3.org/1999/xlink"
   xmlns="http://www.w3.org/2000/svg"
   xmlns:svg="http://www.w3.org/2000/svg">
  <defs
     id="defs2">
    <linearGradient
       id="linearGradient10074">
      <stop
         style="stop-color:#666666;stop-opacity:1;"
         offset="0"
         id="stop10070" />
      <stop
         style="stop-color:#666666;stop-opacity:0;"
         offset="1"
         id="stop10072" />
    </linearGradient>
    <linearGradient
       id="linearGradient10002">
      <stop
         style="stop-color:#000000;stop-opacity:1;"
         offset="0"
         id="stop9998" />
      <stop
         style="stop-color:#000000;stop-opacity:0;"
         offset="1"
         id="stop10000" />
    </linearGradient>
    <linearGradient
       xlink:href="#linearGradient10002"
       id="linearGradient10004"
       x1="306.06302"
       y1="67.170578"
       x2="418.90414"
       y2="37.59193"
       gradientUnits="userSpaceOnUse" />
    <linearGradient
       xlink:href="#linearGradient10074"
       id="linearGradient10076"
       x1="-381.17508"
       y1="-817.91785"
       x2="1330.9518"
       y2="-1123.2137"
       gradientUnits="userSpaceOnUse" />
  </defs>
  <g
     id="layer1"
     transform="matrix(4.00584,0,0,4.2822743,-295.88135,-81.201509)">
    <path
       style="fill:#000000;stroke-width:0.264583"
       id="path3797"
       d="m 103.57383,38.20781 c -2.60819,-0.29119 -5.225102,-0.695253 -7.851583,-0.783412 -0.871075,-0.02924 -1.750854,-0.0876 -2.614528,0.02941 -0.857435,0.116171 -1.672825,0.443191 -2.509239,0.664787 -1.79903,1.150235 -3.743291,2.099965 -5.397088,3.450706 -1.179345,0.963231 -2.712348,3.899037 -3.250005,5.259146 -0.418072,1.057594 -1.42168,3.485144 -0.12018,4.632259 0.677835,0.59743 1.724158,0.541121 2.586237,0.811682 1.512668,-0.300896 3.062447,-0.453875 4.538005,-0.902688 1.99376,-0.606431 3.921408,-1.420156 5.832308,-2.251596 4.578996,-1.992337 7.940413,-3.900514 12.326163,-6.245335 0,0 2.38158,-1.916245 2.38158,-1.916245 v 0 c -5.70648,3.070024 -11.620222,6.452496 -17.846119,8.372062 -1.374884,0.423903 -2.816979,0.587027 -4.22547,0.880541 -0.776854,-0.180631 -1.704937,-0.0472 -2.330564,-0.541893 -0.49285,-0.389706 -0.626836,-1.155336 -0.610202,-1.783425 0.03728,-1.407559 1.447509,-4.190802 2.133797,-5.240168 0.563476,-0.861583 1.496245,-1.474739 1.938266,-2.404496 0.121523,-0.255615 -0.562054,0.06724 -0.843084,0.100857 0.818211,-0.247464 1.610252,-0.609245 2.454632,-0.742391 0.851318,-0.13424 1.723581,-0.07973 2.584979,-0.05228 2.543731,0.08107 5.073857,0.526639 7.586235,0.894443 0,0 3.23586,-2.231967 3.23586,-2.231967 z" />
    <path
       style="fill:#ff0000;stroke-width:0.264583"
       id="path3799"
       d="m 88.761637,41.764317 c 1.690309,2.244794 2.867633,4.817831 4.229497,7.263043 0.532627,0.720619 1.066284,2.110189 1.857772,2.634683 0.151429,0.100349 0.363617,0.228037 0.52529,0.145196 3.925022,-2.011218 3.321262,-1.133547 4.272463,-3.440165 1.156991,-3.262714 2.643451,-6.380689 4.139261,-9.496312 0,0 -3.44795,1.569012 -3.44795,1.569012 v 0 c -1.464855,3.143559 -2.895179,6.298055 -4.189987,9.516607 -0.181938,0.327543 -0.914109,1.051499 -0.545811,0.98263 1.078965,-0.20176 1.987724,-0.933016 2.963979,-1.434814 0.122195,-0.06281 -0.267314,0.163276 -0.395867,0.114793 -0.218197,-0.08229 -0.37006,-0.288063 -0.525201,-0.46217 -0.541142,-0.607299 -0.94783,-1.33285 -1.375942,-2.016042 -1.381352,-2.45981 -2.582346,-5.025289 -4.130122,-7.38998 0,0 -3.377382,2.013519 -3.377382,2.013519 z" />
    <path
       style="fill:#666666;stroke-width:0.264583"
       id="path3873"
       d="m 96.053615,53.015959 c 2.055672,-0.884052 4.001675,-2.110896 5.677105,-3.601982 0.80699,-0.718193 1.10086,-1.06843 1.85208,-1.867885 0.88454,-0.965599 1.63792,-2.03751 2.37306,-3.117674 0.30338,-0.445766 0.5639,-0.923529 0.90748,-1.339102 0.0703,-0.08508 0.16705,-0.144365 0.25058,-0.216547 -1.12457,0.6344 -2.27761,1.220782 -3.37371,1.903201 -0.0612,0.03813 -0.0241,0.142575 -0.0279,0.214617 -0.009,0.172455 -0.004,0.34539 -0.0106,0.51797 -0.0266,0.736547 -0.0702,1.471822 -0.0926,2.20865 -0.0136,0.664686 0.0311,1.329108 0.1592,1.981917 0.0307,0.156463 0.14864,0.696012 0.25519,0.852617 0.0744,0.109376 0.19705,0.176556 0.29558,0.264834 3.21536,-0.119625 4.45219,-2.520824 5.64597,-4.807271 0.57716,-1.105457 0.79662,-1.582536 1.33072,-2.690623 0.1742,-0.364996 0.32854,-0.74015 0.52258,-1.094989 0.74086,-1.354741 2.2135,-2.074937 -2.56761,1.216551 -0.0478,0.03289 0.0242,0.113483 0.0345,0.170565 0.0518,0.286018 0.1139,0.570498 0.15172,0.85869 0.0563,0.429132 0.087,0.86124 0.13054,1.29186 0.12833,1.967369 0.0675,0.990806 0.18284,2.929674 0,0 3.19753,-1.655167 3.19753,-1.655167 v 0 c -0.13375,-1.934788 -0.0809,-0.953351 -0.15594,-2.944445 -0.008,-0.224613 -0.0434,-2.006513 -0.13247,-2.371531 -0.0618,-0.253285 -0.087,-0.796181 -0.33234,-0.70803 -3.42106,1.229099 -3.31367,1.500428 -4.31118,3.798297 -0.63632,1.352892 -1.27526,2.709786 -2.10898,3.956631 -0.22681,0.339206 -1.1383,1.056566 -0.73817,0.976542 1.99524,-0.399043 3.4518,-2.297245 2.44623,-1.048951 -0.0639,-0.01412 -0.14763,0.0061 -0.19156,-0.04236 -0.0996,-0.109862 -0.23682,-0.659124 -0.25912,-0.757722 -0.13943,-0.616512 -0.19821,-1.247894 -0.18175,-1.879681 0.0464,-0.998402 0.0181,-0.581441 0.0985,-1.56322 0.007,-0.09032 0.0981,-1.113221 0.0934,-1.252366 -0.006,-0.173949 0.0916,-0.570818 -0.0739,-0.516897 -1.26209,0.41123 -2.39682,1.1416 -3.59523,1.7124 -0.31215,0.498551 -0.59635,1.010225 -0.91903,1.503218 -0.70153,1.071788 -1.46416,2.103702 -2.3425,3.038999 -0.324837,0.330156 -0.63916,0.670993 -0.9745,0.990469 -0.606563,0.577865 -1.169956,1.043836 -1.836336,1.540832 -0.255151,0.190295 -1.06327,0.696235 -0.780452,0.550197 1.608558,-0.830605 3.857428,-2.261342 2.531981,-1.421763 0,0 -3.131016,2.419477 -3.131016,2.419477 z" />
    <g
       style="fill:#666666"
       id="g7313"
       transform="matrix(0.0583453,0,0,0.05290174,69.799716,67.555479)">
      <path
         d="m 160,-120 q -33,0 -56.5,-23.5 Q 80,-167 80,-200 v -440 q 0,-33 23.5,-56.5 Q 127,-720 160,-720 h 160 v -80 q 0,-33 23.5,-56.5 Q 367,-880 400,-880 h 160 q 33,0 56.5,23.5 23.5,23.5 23.5,56.5 v 80 h 160 q 33,0 56.5,23.5 23.5,23.5 23.5,56.5 v 440 q 0,33 -23.5,56.5 Q 833,-120 800,-120 Z m 0,-80 H 800 V -640 H 160 Z m 240,-520 h 160 v -80 H 400 Z m -240,520 v -440 z"
         id="path7304"
         style="fill:url(#linearGradient10076);fill-opacity:1" />
    </g>
    <path
       style="fill:#000000;stroke:#000000;stroke-width:0.264583px;stroke-linecap:butt;stroke-linejoin:miter;stroke-opacity:1"
       d="m 88.47021,29.466225 h 18.6705"
       id="path8211" />
    <path
       style="fill:url(#linearGradient10004);fill-opacity:1;stroke-width:0.237363"
       d="m 334.50086,101.76931 c 0.10153,-10.073393 0.10193,-10.076374 1.79995,-13.351658 0.58685,-1.131985 1.46987,-2.266746 2.77055,-3.560443 2.00456,-1.993786 3.65475,-3.103021 6.06416,-4.076223 3.14964,-1.272195 3.44425,-1.286147 25.40746,-1.203233 18.63529,0.07035 20.39008,0.110803 21.69909,0.500218 4.85264,1.44361 9.34773,5.08323 11.17933,9.051769 1.26866,2.748805 1.34454,3.418261 1.45964,12.87693 l 0.1076,8.84177 h -8.80626 -8.80625 v -7.83297 -7.832978 H 369.6926 352.00907 v 7.832978 7.83297 h -8.79986 -8.79987 z"
       id="path8287"
       transform="scale(0.26458333)" />
  </g>
</svg>
