<?xml version="1.0" encoding="UTF-8" standalone="no"?>
<!-- Created with Inkscape (http://www.inkscape.org/) -->

<svg
   width="148.81725mm"
   height="119.54101mm"
   viewBox="0 0 148.81725 119.54101"
   version="1.1"
   id="svg1869"
   xml:space="preserve"
   xmlns="http://www.w3.org/2000/svg"
   xmlns:svg="http://www.w3.org/2000/svg"><defs
     id="defs1866" /><g
     id="layer1"
     transform="translate(-21.852545,-34.408832)"><g
       id="layer1-6"
       transform="translate(-3.1853073,7.3624233)"><path
         style="stroke-width:0.264583"
         d="m 83.821015,74.10217 c 0.586086,-5.69077 1.172413,-11.383886 1.465697,-14.74334 0.293285,-3.359454 0.293285,-4.38554 0.43968,-5.705065 0.146395,-1.319525 0.439565,-2.931937 0.586341,-4.104327 0.146776,-1.17239 0.146776,-1.905304 0.329731,-2.712176 0.182955,-0.806873 0.549413,-1.68637 2.198543,-4.325218 1.64913,-2.638848 4.580794,-7.036344 6.413816,-9.41889 1.833022,-2.382546 2.565936,-2.749003 4.215391,-3.262017 1.649456,-0.513014 4.214656,-1.172638 5.826936,-1.612416 1.61229,-0.439779 2.27191,-0.659654 3.55505,-0.769327 1.28313,-0.109674 3.18871,-0.109674 4.36085,-0.18323 1.17213,-0.07355 1.61188,-0.220139 2.71146,-0.219755 1.09958,3.85e-4 2.85773,0.146966 4.02988,0.220139 1.17214,0.07317 1.75848,0.07317 2.63821,0.220145 0.87974,0.146973 2.0524,0.440138 3.00496,0.586334 0.95256,0.146195 1.68547,0.146195 3.81107,0.366252 2.12559,0.220057 5.64359,0.659805 7.69562,0.879496 2.05202,0.219691 2.63834,0.219691 3.0048,0.294308 0.36646,0.07462 0.51305,0.221202 1.17267,0.29317 0.65963,0.07197 1.83229,0.07197 2.85855,0.145511 1.02626,0.07354 1.90576,0.220123 2.78534,0.513832 0.87959,0.293708 1.75909,0.733456 2.56524,1.026135 0.80615,0.292678 1.53907,0.439264 2.0519,0.660157 0.51284,0.220892 0.806,0.514054 1.57577,1.063412 0.76978,0.549358 2.01573,1.355566 2.63717,1.978876 0.62144,0.623309 0.62144,1.063058 0.69606,1.356224 0.0746,0.293165 0.22121,0.439747 0.29318,1.167038 0.072,0.727291 0.072,2.035291 -0.18092,2.940861 -0.2529,0.905571 -0.75868,1.411358 -1.66304,1.66425 -0.90435,0.252892 -2.2099,0.252892 -2.9373,0.326186 -0.7274,0.07329 -0.87398,0.219877 -1.67886,0.29317 -0.80488,0.07329 -2.27072,0.07329 -3.44312,-0.07276 -1.17239,-0.146054 -2.05189,-0.439222 -3.81109,-0.65955 -1.75919,-0.220327 -4.39769,-0.366912 -5.93662,-0.513043 -1.53892,-0.146131 -1.97867,-0.292714 -2.71169,-0.439613 -0.73302,-0.146899 -1.7591,-0.29348 -2.71206,-0.366983 -0.95295,-0.0735 -1.83245,-0.0735 -2.49181,-0.146266 -0.65935,-0.07276 -1.09909,-0.219347 -3.22482,-0.29317 -2.12572,-0.07382 -5.93688,-0.07382 -8.28195,-0.219877 -2.34507,-0.146055 -3.22456,-0.439219 -4.10433,-0.586333 -0.87976,-0.147114 -1.75926,-0.147114 -2.2723,-0.219083 -0.51304,-0.07197 -0.65962,-0.218548 -1.39254,-0.293162 -0.73291,-0.07461 -2.05216,-0.07461 -3.4093,0.548296 -1.35714,0.622909 -2.74967,1.86886 -3.62952,2.969013 -0.87985,1.100152 -1.24631,2.052945 -1.68593,2.858627 -0.43962,0.805683 -0.95267,1.465308 -1.282605,2.015604 -0.329936,0.550296 -0.476518,0.990045 -0.69633,1.429306 -0.219812,0.439261 -0.512975,0.87901 -0.842855,1.575685 -0.329881,0.696674 -0.696339,1.649465 -0.916101,2.382783 -0.219762,0.733318 -0.293056,1.246359 -0.4031,1.648881 -0.110044,0.402522 -0.256625,0.695692 -0.329652,1.209529 -0.07303,0.513838 -0.07303,1.246753 -0.146582,1.758999 -0.07356,0.512246 -0.220136,0.805408 -0.293163,1.978866 -0.07303,1.173459 -0.07303,3.225626 -0.0018,4.68675 0.0712,1.461125 0.213097,2.330855 0.358417,2.838837 0.145321,0.507981 0.291903,0.654563 0.589262,1.252626 0.297359,0.598062 0.746773,1.647059 1.194819,2.692861"
         id="path522" /><path
         style="fill-opacity:1;stroke-width:0.264583"
         d="m 154.34292,40.6194 c -0.006,0.807582 0.53994,2.187149 0.95727,3.020138 0.41733,0.83299 0.70429,1.11995 0.84644,2.78109 0.14216,1.66114 0.14216,4.696461 0.14216,6.151102 0,1.454641 0,1.328601 0.14659,1.117673 0.14658,-0.210927 0.43975,-0.504097 0.58634,-0.72265 0.14658,-0.218552 0.14658,-0.365134 0.28973,-0.651503 0.14314,-0.286369 0.42983,-0.710462 0.67512,-1.528696 0.24529,-0.818235 0.44916,-2.032158 0.87603,-2.235637 0.42687,-0.20348 1.07406,0.602728 1.3965,1.225581 0.32243,0.622853 0.32243,1.062601 0.39569,1.494706 0.0733,0.432106 0.21868,0.856031 0.29084,1.035019 0.0722,0.178989 0.0722,0.113563 0.0722,-0.16853 0,-0.282093 0,-0.78086 -0.072,-1.103534 -0.072,-0.322674 -0.21855,-0.469265 -0.29316,-0.762431 -0.0746,-0.293165 -0.0746,-0.732913 -0.14658,-1.02608 -0.072,-0.293166 -0.21855,-0.439747 -0.32848,-0.896929 -0.10993,-0.457182 -0.18082,-1.225195 -0.25274,-1.79233 -0.0719,-0.567134 -0.1452,-0.933601 -0.41891,-1.355109 -0.2737,-0.421507 -0.74986,-0.897661 -1.31146,-1.245498 -0.56161,-0.347838 -1.2092,-0.565788 -1.67898,-1.310807 -0.46979,-0.745018 -0.7593,-2.019124 -1.18325,-2.542069 -0.42395,-0.522944 -0.98297,-0.291088 -0.98935,0.516494 z"
         id="path593" /><path
         style="fill-opacity:1;stroke-width:0.33827"
         d="m 80.852201,146.41822 c -10.623129,-0.33873 -16.460205,-0.85319 -17.513916,-1.54361 -0.430874,-0.28232 -0.955434,-0.89086 -1.165688,-1.35232 -0.763728,-1.6762 0.643959,-8.86145 5.67113,-28.94711 4.645813,-18.561967 7.596174,-31.950751 7.596174,-34.471547 0,-0.979713 0.139096,-1.330693 0.527367,-1.330693 0.290052,0 0.427781,-0.161131 0.306068,-0.358071 -0.500738,-0.810207 -0.373753,-0.859962 -28.614923,11.21143 -11.279791,4.821428 -20.731953,8.766233 -21.004805,8.766233 -0.705142,0 -1.615756,-1.106816 -1.615756,-1.963886 0,-0.399669 0.342497,-0.948563 0.761105,-1.219766 1.086751,-0.704075 45.513936,-19.6743 47.120997,-20.120472 1.655553,-0.459637 3.71871,-0.481081 4.529642,-0.04708 0.422312,0.226015 4.585198,-0.137813 13.423948,-1.173226 7.046493,-0.82546 18.748426,-2.116349 26.004286,-2.868641 13.77955,-1.428671 22.13879,-2.404547 27.51421,-3.212068 2.3568,-0.35405 3.35126,-0.658665 3.83083,-1.173425 0.84899,-0.911288 2.08313,-0.878655 4.75128,0.125632 2.59046,0.975051 8.60756,2.281386 15.05538,3.268589 2.85312,0.436829 4.89239,0.918032 5.25462,1.239922 0.83224,0.739553 0.7418,1.998766 -0.18729,2.607524 -0.70366,0.46106 -1.29445,0.429924 -6.09041,-0.320992 -5.71343,-0.894565 -12.26764,-2.282386 -14.50209,-3.070747 l -1.3833,-0.488055 0.21306,2.453505 c 0.11718,1.349428 0.30903,12.119538 0.42632,23.933575 0.29796,30.011449 -0.22793,38.838129 -2.57648,43.244469 -1.82012,3.41488 -4.62894,5.06952 -9.86677,5.81238 -5.99357,0.85004 -43.194873,1.48535 -58.464989,0.99845 z m 35.856499,-3.71649 c 8.65122,-0.18321 17.48004,-0.48245 19.61959,-0.66498 8.80789,-0.75142 10.18994,-2.07604 11.23543,-10.76853 0.48533,-4.03525 0.62157,-56.689021 0.15268,-59.009433 -0.2198,-1.087715 -0.3643,-1.246031 -1.00214,-1.097904 -1.7046,0.395864 -14.76087,1.95218 -26.94598,3.21198 -7.17118,0.741419 -19.24152,2.06942 -26.822969,2.951118 l -13.784453,1.603081 v 1.10467 c 0,2.492023 -2.853992,15.577566 -7.103182,32.568088 -4.143734,16.56886 -6.425424,26.7921 -6.427107,28.79701 -2.65e-4,0.46001 0.603112,0.59367 3.635928,0.80522 11.44728,0.79853 26.06227,0.95246 47.442203,0.49968 z"
         id="path1154" /><path
         style="fill-opacity:1;stroke-width:0.346226"
         d="m 78.1851,143.13859 c -10.525753,-0.39556 -13.487142,-0.67811 -13.487142,-1.28675 0,-1.35947 2.124332,-10.77917 6.040112,-26.78304 4.899461,-20.024241 6.999962,-29.398457 7.539919,-33.649577 l 0.37763,-2.973144 6.421863,-0.769898 c 9.354871,-1.121524 26.203288,-2.98706 36.335638,-4.023252 6.82898,-0.698368 19.404,-2.180046 25.93682,-3.056058 0.79575,-0.106706 1.09587,12.382137 0.9021,37.539399 -0.16308,21.17126 -0.38312,25.56214 -1.45049,28.94329 -1.087,3.44336 -3.51054,4.778 -9.73416,5.36063 -8.54372,0.79984 -44.754676,1.22933 -58.88229,0.6984 z m -0.688758,-9.61194 c 0.002,-0.52427 0.701803,-5.86665 1.556036,-11.87196 0.854233,-6.00529 1.553224,-11.19169 1.553316,-11.52531 1.33e-4,-0.45778 -0.285814,-0.6066 -1.165555,-0.6066 h -1.165728 l -0.246005,2.85966 c -0.135306,1.57282 -0.855695,7.05263 -1.600865,12.17735 -0.74517,5.12472 -1.35486,9.45322 -1.35486,9.61888 0,0.16566 0.54468,0.3012 1.210384,0.3012 1.089176,0 1.21068,-0.0955 1.213277,-0.95322 z m 55.702868,-2.26198 c 2.22712,-1.50434 4.12182,-5.2877 4.12182,-8.23048 0,-1.71349 -0.008,-1.72622 -1.12393,-1.74 l -1.12392,-0.0138 0.9816,-0.53319 c 1.17287,-0.63709 1.06478,-0.8282 -0.50183,-0.88723 -2.44302,-0.092 -4.85478,2.12872 -6.39925,5.89247 -0.44422,1.08257 -0.81137,1.76482 -0.81588,1.51613 -0.006,-0.35837 1.91397,-14.60039 2.98889,-22.16521 l 0.20933,-1.47316 h -1.19772 -1.19771 l -0.43708,3.89955 c -0.3812,3.40108 -2.30377,17.11348 -2.98885,21.31752 l -0.24007,1.47316 h 1.23372 c 1.17094,0 1.2406,-0.0661 1.36936,-1.29985 0.13199,-1.26481 0.13736,-1.2578 0.19907,0.25997 0.0736,1.80963 0.30975,2.28062 1.26323,2.5194 1.49293,0.37385 2.54015,0.22069 3.65922,-0.5352 z m -43.107469,-8.87731 c 0.104186,-0.16897 -0.113806,-0.3867 -0.484423,-0.48385 -0.593558,-0.15558 -1.998871,-2.6129 -2.570622,-4.49499 -0.101314,-0.33362 -0.5044,-0.60659 -0.895658,-0.60659 -0.683125,0 -0.689514,-0.0424 -0.160875,-1.06705 0.302785,-0.58688 1.007082,-1.5459 1.565094,-2.13117 0.558011,-0.58526 1.014576,-1.1808 1.014576,-1.32342 0,-0.54078 -2.410453,-2.3496 -3.881492,-2.9127 -0.843396,-0.32284 -2.143623,-0.53351 -2.889406,-0.46817 l -1.355975,0.11881 2.071456,0.96323 c 1.139301,0.52977 2.421423,1.29276 2.849158,1.69553 0.766271,0.72154 0.767733,0.7393 0.09978,1.20827 -0.925081,0.64945 -2.989483,4.49 -3.267211,6.07823 -0.131237,0.75049 -0.06287,1.60131 0.162541,2.02353 0.334713,0.62685 0.646535,0.7122 2.234222,0.61145 1.466807,-0.093 1.922554,0.007 2.222374,0.48951 0.402279,0.64701 2.930157,0.87728 3.286502,0.29938 z m 3.13672,-6.4141 c 0,-0.0209 -0.04703,-6.39416 -0.104554,-14.16292 L 93.019363,87.685315 h -1.146468 -1.146457 l 0.102877,14.032215 c 0.05664,7.71772 0.201114,14.19154 0.321188,14.38627 0.159515,0.2587 2.077958,0.13819 2.077958,-0.13054 z m 29.334369,-3.00199 c -0.39904,-0.80174 -0.455,-1.45171 -0.23129,-2.68635 0.25674,-1.41703 0.41502,-1.64263 1.21778,-1.73579 1.94481,-0.22574 3.46306,-2.98099 2.29035,-4.15642 -0.64407,-0.64558 -3.19099,-0.51846 -3.81977,0.19065 -1.42317,1.60491 -2.571,6.58638 -1.93742,8.40809 0.31593,0.90839 0.52544,1.03747 1.68379,1.03747 h 1.32296 z m -4.26213,-3.41469 c 0,-0.74399 0.29919,-4.99451 0.66487,-9.44558 0.36567,-4.451071 0.7728,-10.326832 0.90472,-13.057247 l 0.23988,-4.964389 -1.1641,0.111621 -1.1641,0.111622 -0.22957,5.546021 c -0.12626,3.05031 -0.47686,8.353695 -0.77912,11.785294 -0.30225,3.431608 -0.64019,7.370138 -0.75096,8.752318 l -0.2014,2.51304 h 1.23989 c 1.21083,0 1.23989,-0.0317 1.23989,-1.3527 z m -18.794945,-3.76003 c -0.121249,-1.28686 -0.221561,-3.39261 -0.22292,-4.67946 l -0.002,-2.339734 h -1.260386 -1.260397 l 0.220467,2.339734 c 0.121249,1.28685 0.22156,3.3926 0.22291,4.67946 l 0.002,2.33972 h 1.260387 1.260396 z m 6.243365,2.06356 c 0.32425,-0.20657 0.30667,-1.72582 -0.0791,-6.84056 -0.2728,-3.616266 -0.68595,-9.265709 -0.91809,-12.554328 l -0.42209,-5.979304 h -1.14141 c -0.69343,0 -1.14139,0.17314 -1.14139,0.441159 0,0.242637 0.30137,4.18118 0.66973,8.752314 0.36836,4.571138 0.77856,10.143949 0.91157,12.384019 0.22807,3.84095 0.28347,4.07255 0.97293,4.06755 0.40211,-0.003 0.91867,-0.1248 1.14792,-0.27085 z m 5.81671,-0.83555 c 0.16954,-0.17937 0.85388,-6.2957 0.85489,-7.640607 8.1e-4,-1.254645 -0.0411,-1.299849 -1.20941,-1.299849 h -1.21039 v 2.657476 c 0,1.4616 -0.0744,2.5829 -0.16531,2.49177 -0.0909,-0.0911 -0.34327,-1.36499 -0.56077,-2.83078 -0.38778,-2.613314 -0.4148,-2.665092 -1.3909,-2.665092 -0.95093,0 -0.99544,0.07055 -0.99544,1.578047 0,2.006955 0.94788,6.316995 1.62467,7.387405 0.43489,0.68783 0.71449,0.78782 1.73752,0.62142 0.67057,-0.10908 1.26239,-0.24398 1.31514,-0.29979 z M 101.00949,92.538084 c 1.2483,-2.4885 1.32256,-2.773011 0.72379,-2.773011 -0.36697,0 -0.88801,-0.08493 -1.15786,-0.188715 -0.4727,-0.181811 -2.090058,2.405595 -2.994999,4.791287 -0.346817,0.914312 -0.32087,0.943449 0.840094,0.943449 1.150996,0 1.252514,-0.108741 2.588975,-2.77301 z"
         id="path1227" />
         
         
<style>
#path1227{fill:coral;}
#path593{fill:tomato;}
#path1154{fill:coral;}
#path522{fill:green;}
                  
@media (prefers-color-scheme: dark) {
#path1227{fill:#ffb380;}
#path593{fill:#ff0000;}
#path1154{fill:#ffb380;}
#path522{fill:#00ff00;}
}
</style>
         
         </g></g>
         

         
         
         </svg>
